<svg width="768" height="495" viewBox="0 0 768 495" fill="none" xmlns="http://www.w3.org/2000/svg">
<mask id="mask0_405_10381" style="mask-type:alpha" maskUnits="userSpaceOnUse" x="0" y="-273" width="768" height="768">
<rect width="768" height="768" transform="translate(0 -273)" fill="url(#paint0_radial_405_10381)"/>
</mask>
<g mask="url(#mask0_405_10381)">
<g clip-path="url(#clip0_405_10381)">
<g clip-path="url(#clip1_405_10381)">
<line x1="0.5" y1="1" x2="0.5" y2="769" stroke="#EAECF0"/>
<line x1="48.5" y1="1" x2="48.5" y2="769" stroke="#EAECF0"/>
<line x1="96.5" y1="1" x2="96.5" y2="769" stroke="#EAECF0"/>
<line x1="144.5" y1="1" x2="144.5" y2="769" stroke="#EAECF0"/>
<line x1="192.5" y1="1" x2="192.5" y2="769" stroke="#EAECF0"/>
<line x1="240.5" y1="1" x2="240.5" y2="769" stroke="#EAECF0"/>
<line x1="288.5" y1="1" x2="288.5" y2="769" stroke="#EAECF0"/>
<line x1="336.5" y1="1" x2="336.5" y2="769" stroke="#EAECF0"/>
<line x1="384.5" y1="1" x2="384.5" y2="769" stroke="#EAECF0"/>
<line x1="432.5" y1="1" x2="432.5" y2="769" stroke="#EAECF0"/>
<line x1="480.5" y1="1" x2="480.5" y2="769" stroke="#EAECF0"/>
<line x1="528.5" y1="1" x2="528.5" y2="769" stroke="#EAECF0"/>
<line x1="576.5" y1="1" x2="576.5" y2="769" stroke="#EAECF0"/>
<line x1="624.5" y1="1" x2="624.5" y2="769" stroke="#EAECF0"/>
<line x1="672.5" y1="1" x2="672.5" y2="769" stroke="#EAECF0"/>
<line x1="720.5" y1="1" x2="720.5" y2="769" stroke="#EAECF0"/>
</g>
<rect x="0.5" y="1.5" width="767" height="767" stroke="#EAECF0"/>
<g clip-path="url(#clip2_405_10381)">
<line y1="14.5" x2="768" y2="14.5" stroke="#EAECF0"/>
<line y1="62.5" x2="768" y2="62.5" stroke="#EAECF0"/>
<line y1="110.5" x2="768" y2="110.5" stroke="#EAECF0"/>
<line y1="158.5" x2="768" y2="158.5" stroke="#EAECF0"/>
<line y1="206.5" x2="768" y2="206.5" stroke="#EAECF0"/>
<line y1="254.5" x2="768" y2="254.5" stroke="#EAECF0"/>
<line y1="302.5" x2="768" y2="302.5" stroke="#EAECF0"/>
<line y1="350.5" x2="768" y2="350.5" stroke="#EAECF0"/>
<line y1="398.5" x2="768" y2="398.5" stroke="#EAECF0"/>
<line y1="446.5" x2="768" y2="446.5" stroke="#EAECF0"/>
<line y1="494.5" x2="768" y2="494.5" stroke="#EAECF0"/>
</g>
<rect x="0.5" y="-272.5" width="767" height="767" stroke="#EAECF0"/>
</g>
</g>
<defs>
<radialGradient id="paint0_radial_405_10381" cx="0" cy="0" r="1" gradientUnits="userSpaceOnUse" gradientTransform="translate(384 384) rotate(90) scale(384 384)">
<stop/>
<stop offset="1" stop-opacity="0"/>
</radialGradient>
<clipPath id="clip0_405_10381">
<rect width="768" height="494" fill="white" transform="translate(0 1)"/>
</clipPath>
<clipPath id="clip1_405_10381">
<rect y="1" width="768" height="768" fill="white"/>
</clipPath>
<clipPath id="clip2_405_10381">
<rect y="-273" width="768" height="768" fill="white"/>
</clipPath>
</defs>
</svg>
