<svg width="16" height="16" viewBox="0 0 16 16" fill="none" xmlns="http://www.w3.org/2000/svg">
<path fill-rule="evenodd" clip-rule="evenodd" d="M1.33594 4.0026C1.33594 3.63441 1.63441 3.33594 2.0026 3.33594H10.6693C11.0375 3.33594 11.3359 3.63441 11.3359 4.0026C11.3359 4.37079 11.0375 4.66927 10.6693 4.66927H2.0026C1.63441 4.66927 1.33594 4.37079 1.33594 4.0026ZM1.33594 8.0026C1.33594 7.63441 1.63441 7.33594 2.0026 7.33594H7.33594C7.70413 7.33594 8.0026 7.63441 8.0026 8.0026C8.0026 8.37079 7.70413 8.66927 7.33594 8.66927H2.0026C1.63441 8.66927 1.33594 8.37079 1.33594 8.0026ZM2.0026 11.3359C1.63441 11.3359 1.33594 11.6344 1.33594 12.0026C1.33594 12.3708 1.63441 12.6693 2.0026 12.6693H10.6693C11.0375 12.6693 11.3359 12.3708 11.3359 12.0026C11.3359 11.6344 11.0375 11.3359 10.6693 11.3359H2.0026ZM12.0026 5.33594C12.3708 5.33594 12.6693 5.63441 12.6693 6.0026V7.33594H14.0026C14.3708 7.33594 14.6693 7.63441 14.6693 8.0026C14.6693 8.37079 14.3708 8.66927 14.0026 8.66927H12.6693V10.0026C12.6693 10.3708 12.3708 10.6693 12.0026 10.6693C11.6344 10.6693 11.3359 10.3708 11.3359 10.0026V8.66927H10.0026C9.63441 8.66927 9.33594 8.37079 9.33594 8.0026C9.33594 7.63441 9.63441 7.33594 10.0026 7.33594H11.3359V6.0026C11.3359 5.63441 11.6344 5.33594 12.0026 5.33594Z" fill="#ABB4BD"/>
</svg>
