<svg width="16" height="16" viewBox="0 0 16 16" fill="none" xmlns="http://www.w3.org/2000/svg">
<path d="M6 2H2.66667C2.29848 2 2 2.29848 2 2.66667V7.33333C2 7.70152 2.29848 8 2.66667 8H6C6.36819 8 6.66667 7.70152 6.66667 7.33333V2.66667C6.66667 2.29848 6.36819 2 6 2Z" fill="#ABB4BD" stroke="#ABB4BD" stroke-linecap="round" stroke-linejoin="round"/>
<path d="M13.3359 2H10.0026C9.63441 2 9.33594 2.29848 9.33594 2.66667V4.66667C9.33594 5.03486 9.63441 5.33333 10.0026 5.33333H13.3359C13.7041 5.33333 14.0026 5.03486 14.0026 4.66667V2.66667C14.0026 2.29848 13.7041 2 13.3359 2Z" fill="#ABB4BD" stroke="#ABB4BD" stroke-linecap="round" stroke-linejoin="round"/>
<path d="M13.3359 8H10.0026C9.63441 8 9.33594 8.29848 9.33594 8.66667V13.3333C9.33594 13.7015 9.63441 14 10.0026 14H13.3359C13.7041 14 14.0026 13.7015 14.0026 13.3333V8.66667C14.0026 8.29848 13.7041 8 13.3359 8Z" fill="#ABB4BD" stroke="#ABB4BD" stroke-linecap="round" stroke-linejoin="round"/>
<path d="M6 10.6641H2.66667C2.29848 10.6641 2 10.9625 2 11.3307V13.3307C2 13.6989 2.29848 13.9974 2.66667 13.9974H6C6.36819 13.9974 6.66667 13.6989 6.66667 13.3307V11.3307C6.66667 10.9625 6.36819 10.6641 6 10.6641Z" fill="#ABB4BD" stroke="#ABB4BD" stroke-linecap="round" stroke-linejoin="round"/>
</svg>
