<svg width="16" height="16" viewBox="0 0 16 16" fill="none" xmlns="http://www.w3.org/2000/svg">
<mask id="path-1-inside-1_476_22516" fill="white">
<path fill-rule="evenodd" clip-rule="evenodd" d="M8.00093 1.92093C4.64305 1.92093 1.92093 4.64305 1.92093 8.00093C1.92093 11.3588 4.64305 14.0809 8.00093 14.0809C11.3588 14.0809 14.081 11.3588 14.081 8.00093C14.081 4.64305 11.3588 1.92093 8.00093 1.92093ZM0.960938 8.00093C0.960938 4.11285 4.11285 0.960938 8.00093 0.960938C11.889 0.960938 15.041 4.11285 15.041 8.00093C15.041 11.889 11.889 15.0409 8.00093 15.0409C4.11285 15.0409 0.960938 11.889 0.960938 8.00093Z"/>
</mask>
<path fill-rule="evenodd" clip-rule="evenodd" d="M8.00093 1.92093C4.64305 1.92093 1.92093 4.64305 1.92093 8.00093C1.92093 11.3588 4.64305 14.0809 8.00093 14.0809C11.3588 14.0809 14.081 11.3588 14.081 8.00093C14.081 4.64305 11.3588 1.92093 8.00093 1.92093ZM0.960938 8.00093C0.960938 4.11285 4.11285 0.960938 8.00093 0.960938C11.889 0.960938 15.041 4.11285 15.041 8.00093C15.041 11.889 11.889 15.0409 8.00093 15.0409C4.11285 15.0409 0.960938 11.889 0.960938 8.00093Z" fill="#ABB4BD"/>
<path d="M8.00093 1.92093V0.920933C4.09076 0.920933 0.920934 4.09076 0.920934 8.00093H1.92093H2.92093C2.92093 5.19533 5.19533 2.92093 8.00093 2.92093V1.92093ZM1.92093 8.00093H0.920934C0.920934 11.9111 4.09076 15.0809 8.00093 15.0809V14.0809V13.0809C5.19533 13.0809 2.92093 10.8065 2.92093 8.00093H1.92093ZM8.00093 14.0809V15.0809C11.9111 15.0809 15.081 11.9111 15.081 8.00093H14.081H13.081C13.081 10.8065 10.8066 13.0809 8.00093 13.0809V14.0809ZM14.081 8.00093H15.081C15.081 4.09075 11.9111 0.920933 8.00093 0.920933V1.92093V2.92093C10.8066 2.92093 13.081 5.19534 13.081 8.00093H14.081ZM0.960938 8.00093H1.96094C1.96094 4.66513 4.66513 1.96094 8.00093 1.96094V0.960938V-0.0390625C3.56056 -0.0390625 -0.0390625 3.56056 -0.0390625 8.00093H0.960938ZM8.00093 0.960938V1.96094C11.3367 1.96094 14.041 4.66515 14.041 8.00093H15.041H16.041C16.041 3.56055 12.4412 -0.0390625 8.00093 -0.0390625V0.960938ZM15.041 8.00093H14.041C14.041 11.3367 11.3367 14.0409 8.00093 14.0409V15.0409V16.0409C12.4412 16.0409 16.041 12.4413 16.041 8.00093H15.041ZM8.00093 15.0409V14.0409C4.66513 14.0409 1.96094 11.3367 1.96094 8.00093H0.960938H-0.0390625C-0.0390625 12.4413 3.56057 16.0409 8.00093 16.0409V15.0409Z" fill="#ABB4BD" mask="url(#path-1-inside-1_476_22516)"/>
<mask id="path-3-inside-2_476_22516" fill="white">
<path fill-rule="evenodd" clip-rule="evenodd" d="M14.4015 8.42365H1.60156V7.57031H14.4015V8.42365Z"/>
</mask>
<path fill-rule="evenodd" clip-rule="evenodd" d="M14.4015 8.42365H1.60156V7.57031H14.4015V8.42365Z" fill="#ABB4BD"/>
<path d="M14.4015 8.42365V9.42365H15.4015V8.42365H14.4015ZM1.60156 8.42365H0.601562V9.42365H1.60156V8.42365ZM1.60156 7.57031V6.57031H0.601562V7.57031H1.60156ZM14.4015 7.57031H15.4015V6.57031H14.4015V7.57031ZM14.4015 8.42365V7.42365H1.60156V8.42365V9.42365H14.4015V8.42365ZM1.60156 8.42365H2.60156V7.57031H1.60156H0.601562V8.42365H1.60156ZM1.60156 7.57031V8.57031H14.4015V7.57031V6.57031H1.60156V7.57031ZM14.4015 7.57031H13.4015V8.42365H14.4015H15.4015V7.57031H14.4015Z" fill="#ABB4BD" mask="url(#path-3-inside-2_476_22516)"/>
<mask id="path-5-inside-3_476_22516" fill="white">
<path fill-rule="evenodd" clip-rule="evenodd" d="M7.57253 14.4018V1.60182H8.42586V14.4018H7.57253ZM11.066 8.0018C11.066 5.68421 10.2325 3.39145 8.59857 1.87548L9.10641 1.32812C10.9215 3.01215 11.8126 5.5194 11.8126 8.0018C11.8126 10.4842 10.9215 12.9915 9.10641 14.6755L8.59857 14.1281C10.2325 12.6122 11.066 10.3194 11.066 8.0018ZM4.26562 8.00182C4.26562 5.523 5.12767 3.01705 6.88748 1.33216L7.40384 1.87148C5.82137 3.3866 5.01229 5.68064 5.01229 8.00182C5.0123 10.323 5.82139 12.6171 7.40387 14.1322L6.88749 14.6715C5.12769 12.9866 4.26564 10.4806 4.26562 8.00182Z"/>
</mask>
<path fill-rule="evenodd" clip-rule="evenodd" d="M7.57253 14.4018V1.60182H8.42586V14.4018H7.57253ZM11.066 8.0018C11.066 5.68421 10.2325 3.39145 8.59857 1.87548L9.10641 1.32812C10.9215 3.01215 11.8126 5.5194 11.8126 8.0018C11.8126 10.4842 10.9215 12.9915 9.10641 14.6755L8.59857 14.1281C10.2325 12.6122 11.066 10.3194 11.066 8.0018ZM4.26562 8.00182C4.26562 5.523 5.12767 3.01705 6.88748 1.33216L7.40384 1.87148C5.82137 3.3866 5.01229 5.68064 5.01229 8.00182C5.0123 10.323 5.82139 12.6171 7.40387 14.1322L6.88749 14.6715C5.12769 12.9866 4.26564 10.4806 4.26562 8.00182Z" fill="#ABB4BD"/>
<path d="M7.57253 14.4018H6.57253V15.4018H7.57253V14.4018ZM7.57253 1.60182V0.601821H6.57253V1.60182H7.57253ZM8.42586 1.60182H9.42586V0.601821H8.42586V1.60182ZM8.42586 14.4018V15.4018H9.42586V14.4018H8.42586ZM8.59857 1.87548L7.8655 1.19534L7.18535 1.92841L7.91843 2.60856L8.59857 1.87548ZM9.10641 1.32812L9.78655 0.595041L9.05348 -0.085089L8.37334 0.647978L9.10641 1.32812ZM9.10641 14.6755L8.3733 15.3556L9.05345 16.0888L9.78656 15.4086L9.10641 14.6755ZM8.59857 14.1281L7.91843 13.395L7.18538 14.0751L7.86546 14.8082L8.59857 14.1281ZM4.26562 8.00182H3.26562V8.00182L4.26562 8.00182ZM6.88748 1.33216L7.6098 0.640596L6.91823 -0.081727L6.19592 0.609843L6.88748 1.33216ZM7.40384 1.87148L8.09541 2.5938L8.81772 1.90224L8.12616 1.17992L7.40384 1.87148ZM5.01229 8.00182H4.01229V8.00182L5.01229 8.00182ZM7.40387 14.1322L8.12616 14.8237L8.81777 14.1014L8.09543 13.4098L7.40387 14.1322ZM6.88749 14.6715L6.19592 15.3938L6.91822 16.0853L7.60979 15.3631L6.88749 14.6715ZM7.57253 14.4018H8.57253V1.60182H7.57253H6.57253V14.4018H7.57253ZM7.57253 1.60182V2.60182H8.42586V1.60182V0.601821H7.57253V1.60182ZM8.42586 1.60182H7.42586V14.4018H8.42586H9.42586V1.60182H8.42586ZM8.42586 14.4018V13.4018H7.57253V14.4018V15.4018H8.42586V14.4018ZM11.066 8.0018H12.066C12.066 5.4633 11.1551 2.88335 9.27872 1.14241L8.59857 1.87548L7.91843 2.60856C9.30988 3.89956 10.066 5.90512 10.066 8.0018H11.066ZM8.59857 1.87548L9.33165 2.55563L9.83949 2.00827L9.10641 1.32812L8.37334 0.647978L7.8655 1.19534L8.59857 1.87548ZM9.10641 1.32812L8.42628 2.06121C9.9987 3.52007 10.8126 5.73997 10.8126 8.0018H11.8126H12.8126C12.8126 5.29883 11.8444 2.50423 9.78655 0.595041L9.10641 1.32812ZM11.8126 8.0018H10.8126C10.8126 10.2636 9.9987 12.4836 8.42627 13.9424L9.10641 14.6755L9.78656 15.4086C11.8444 13.4994 12.8126 10.7048 12.8126 8.0018H11.8126ZM9.10641 14.6755L9.83952 13.9954L9.33168 13.448L8.59857 14.1281L7.86546 14.8082L8.3733 15.3556L9.10641 14.6755ZM8.59857 14.1281L9.27872 14.8612C11.1551 13.1203 12.066 10.5403 12.066 8.0018H11.066H10.066C10.066 10.0985 9.30988 12.1041 7.91843 13.395L8.59857 14.1281ZM4.26562 8.00182H5.26562C5.26562 5.73397 6.05683 3.51189 7.57905 2.05447L6.88748 1.33216L6.19592 0.609843C4.19852 2.52222 3.26562 5.31204 3.26562 8.00182H4.26562ZM6.88748 1.33216L6.16516 2.02372L6.68153 2.56305L7.40384 1.87148L8.12616 1.17992L7.6098 0.640596L6.88748 1.33216ZM7.40384 1.87148L6.71228 1.14917C4.89241 2.89158 4.01229 5.46935 4.01229 8.00182H5.01229H6.01229C6.01229 5.89193 6.75033 3.88162 8.09541 2.5938L7.40384 1.87148ZM5.01229 8.00182L4.01229 8.00182C4.0123 10.5343 4.89243 13.1121 6.7123 14.8545L7.40387 14.1322L8.09543 13.4098C6.75035 12.122 6.0123 10.1117 6.01229 8.00182L5.01229 8.00182ZM7.40387 14.1322L6.68157 13.4406L6.16519 13.9799L6.88749 14.6715L7.60979 15.3631L8.12616 14.8237L7.40387 14.1322ZM6.88749 14.6715L7.57906 13.9492C6.05685 12.4917 5.26563 10.2697 5.26562 8.00182L4.26562 8.00182L3.26562 8.00182C3.26564 10.6916 4.19854 13.4814 6.19592 15.3938L6.88749 14.6715Z" fill="#ABB4BD" mask="url(#path-5-inside-3_476_22516)"/>
<path d="M14.1416 5.75195L14.1426 5.75293H14.1416V5.75195Z" fill="#ABB4BD" stroke="#ABB4BD"/>
</svg>
