<svg width="16" height="16" viewBox="0 0 16 16" fill="none" xmlns="http://www.w3.org/2000/svg">
<g clip-path="url(#clip0_476_22553)">
<path fill-rule="evenodd" clip-rule="evenodd" d="M1.9974 2.66406C1.9974 2.29587 2.29587 1.9974 2.66406 1.9974H13.3307C13.6989 1.9974 13.9974 2.29587 13.9974 2.66406V5.33073C13.9974 5.69892 13.6989 5.9974 13.3307 5.9974H2.66406C2.29587 5.9974 1.9974 5.69892 1.9974 5.33073V2.66406ZM2.66406 0.664062C1.55949 0.664062 0.664062 1.55949 0.664062 2.66406V5.33073C0.664062 6.4353 1.55949 7.33073 2.66406 7.33073H13.3307C14.4353 7.33073 15.3307 6.4353 15.3307 5.33073V2.66406C15.3307 1.55949 14.4353 0.664062 13.3307 0.664062H2.66406ZM1.9974 10.6641C1.9974 10.2959 2.29587 9.9974 2.66406 9.9974H13.3307C13.6989 9.9974 13.9974 10.2959 13.9974 10.6641V13.3307C13.9974 13.6989 13.6989 13.9974 13.3307 13.9974H2.66406C2.29587 13.9974 1.9974 13.6989 1.9974 13.3307V10.6641ZM2.66406 8.66406C1.55949 8.66406 0.664062 9.55949 0.664062 10.6641V13.3307C0.664062 14.4353 1.55949 15.3307 2.66406 15.3307H13.3307C14.4353 15.3307 15.3307 14.4353 15.3307 13.3307V10.6641C15.3307 9.55949 14.4353 8.66406 13.3307 8.66406H2.66406ZM3.33073 3.9974C3.33073 3.62921 3.62921 3.33073 3.9974 3.33073H4.00406C4.37225 3.33073 4.67073 3.62921 4.67073 3.9974C4.67073 4.36559 4.37225 4.66406 4.00406 4.66406H3.9974C3.62921 4.66406 3.33073 4.36559 3.33073 3.9974ZM3.9974 11.3307C3.62921 11.3307 3.33073 11.6292 3.33073 11.9974C3.33073 12.3656 3.62921 12.6641 3.9974 12.6641H4.00406C4.37225 12.6641 4.67073 12.3656 4.67073 11.9974C4.67073 11.6292 4.37225 11.3307 4.00406 11.3307H3.9974Z" fill="#ABB4BD"/>
</g>
<defs>
<clipPath id="clip0_476_22553">
<rect width="16" height="16" fill="white"/>
</clipPath>
</defs>
</svg>
