<svg width="16" height="16" viewBox="0 0 16 16" fill="none" xmlns="http://www.w3.org/2000/svg">
<path fill-rule="evenodd" clip-rule="evenodd" d="M3.33594 2.66927C2.96775 2.66927 2.66927 2.96775 2.66927 3.33594V12.6693C2.66927 13.0375 2.96775 13.3359 3.33594 13.3359H3.72659L9.58853 7.47399L9.5886 7.47392C9.96366 7.09898 10.4723 6.88835 11.0026 6.88835C11.5329 6.88835 12.0415 7.09898 12.4166 7.47392L12.4167 7.47399L13.3359 8.39325V3.33594C13.3359 2.96775 13.0375 2.66927 12.6693 2.66927H3.33594ZM14.6693 10.0021V3.33594C14.6693 2.23137 13.7738 1.33594 12.6693 1.33594H3.33594C2.23137 1.33594 1.33594 2.23137 1.33594 3.33594V12.6693C1.33594 13.7738 2.23137 14.6693 3.33594 14.6693H3.98974C3.99832 14.6694 4.00689 14.6694 4.01547 14.6693H12.6693C13.7738 14.6693 14.6693 13.7738 14.6693 12.6693V10.0034C14.6693 10.0029 14.6693 10.0025 14.6693 10.0021ZM13.3359 10.2789L11.4739 8.41687L11.4739 8.4168C11.3489 8.29186 11.1793 8.22168 11.0026 8.22168C10.8259 8.22168 10.6564 8.29186 10.5313 8.4168L10.5313 8.41687L5.6122 13.3359H12.6693C13.0375 13.3359 13.3359 13.0375 13.3359 12.6693V10.2789ZM6.0026 5.33594C5.63441 5.33594 5.33594 5.63441 5.33594 6.0026C5.33594 6.37079 5.63441 6.66927 6.0026 6.66927C6.37079 6.66927 6.66927 6.37079 6.66927 6.0026C6.66927 5.63441 6.37079 5.33594 6.0026 5.33594ZM4.0026 6.0026C4.0026 4.89803 4.89803 4.0026 6.0026 4.0026C7.10717 4.0026 8.0026 4.89803 8.0026 6.0026C8.0026 7.10717 7.10717 8.0026 6.0026 8.0026C4.89803 8.0026 4.0026 7.10717 4.0026 6.0026Z" fill="#ABB4BD"/>
</svg>
