<svg width="16" height="16" viewBox="0 0 16 16" fill="none" xmlns="http://www.w3.org/2000/svg">
<path fill-rule="evenodd" clip-rule="evenodd" d="M8.03849 1.16406L8.03369 1.16411C7.5048 1.16918 6.9785 1.23879 6.46647 1.37139C6.29246 1.41645 6.15603 1.55145 6.10914 1.72498L5.78994 2.90611C5.43375 3.06656 5.09521 3.26362 4.7798 3.49413L3.56656 3.19222C3.39253 3.14891 3.20863 3.20213 3.08462 3.33169C2.42374 4.02213 1.91663 4.84475 1.59667 5.74537C1.53336 5.92357 1.57601 6.12224 1.70688 6.25876L2.54839 7.13659C2.47109 7.61452 2.45963 8.10084 2.51437 8.58195L1.6362 9.55758C1.51835 9.6885 1.47809 9.87178 1.53021 10.04C1.80307 10.9208 2.25308 11.7366 2.85259 12.4372C2.97661 12.5821 3.17228 12.6438 3.35701 12.5963L4.50336 12.3016C4.91263 12.6386 5.36851 12.9147 5.85686 13.1213L6.19548 14.3146C6.24525 14.49 6.38653 14.6244 6.56417 14.6653C7.04546 14.7763 7.53782 14.832 8.03173 14.8314L8.03361 14.8314C8.42678 14.8295 8.81905 14.7936 9.20606 14.7242C9.39547 14.6903 9.54858 14.5506 9.59979 14.3652L9.91071 13.239C10.488 13.0359 11.0262 12.7349 11.5015 12.3491L12.6732 12.615C12.8523 12.6557 13.0393 12.5948 13.1602 12.4565C13.7318 11.8028 14.1722 11.0452 14.4574 10.225C14.5188 10.0484 14.4766 9.85227 14.3479 9.71663L13.5133 8.83691C13.6171 8.19384 13.6043 7.53734 13.4756 6.89883L14.2843 6.02081C14.4151 5.87871 14.4524 5.67393 14.3801 5.49481C14.0431 4.66058 13.5431 3.90193 12.9094 3.26325C12.7843 3.13713 12.6016 3.08689 12.4296 3.13127L11.2063 3.44691C10.8284 3.17908 10.4181 2.96077 9.98596 2.79627L9.68564 1.64459C9.63666 1.45674 9.48338 1.31423 9.29247 1.27904C8.87952 1.20291 8.45918 1.16406 8.03849 1.16406ZM6.99641 2.27485C7.34002 2.20474 7.68978 2.16761 8.04089 2.16409C8.29469 2.16419 8.54867 2.18085 8.80059 2.21365L9.08533 3.30558C9.12839 3.4707 9.25268 3.60245 9.415 3.65506C9.91347 3.81662 10.3801 4.06325 10.7922 4.3849C10.9146 4.48043 11.0744 4.51369 11.2247 4.4749L12.3938 4.17325C12.7729 4.59471 13.0876 5.06974 13.3281 5.58294L12.562 6.4147C12.4475 6.53911 12.4035 6.71301 12.4453 6.87691C12.6135 7.53666 12.6274 8.22627 12.486 8.89228C12.4519 9.05328 12.4991 9.22079 12.6124 9.3402L13.4069 10.1776C13.203 10.6781 12.9299 11.1475 12.5954 11.5719L11.4785 11.3185C11.3204 11.2826 11.1547 11.3256 11.034 11.4339C10.5525 11.8657 9.98045 12.1843 9.35981 12.3663C9.19369 12.415 9.06459 12.5461 9.01852 12.713L8.7221 13.7866C8.49252 13.8153 8.26135 13.8302 8.02981 13.8314C7.70935 13.8317 7.38967 13.8041 7.0744 13.7488L6.75149 12.6109C6.70786 12.4572 6.59337 12.3336 6.44342 12.2783C5.89885 12.0775 5.39826 11.7734 4.96922 11.3825C4.84462 11.269 4.67121 11.2259 4.50797 11.2678L3.41863 11.548C3.06056 11.0813 2.77596 10.5625 2.57478 10.0096L3.41278 9.07859C3.51394 8.96621 3.55881 8.81408 3.53483 8.66478C3.45034 8.13885 3.46431 7.60179 3.57603 7.08095C3.61083 6.91874 3.5629 6.74984 3.4481 6.63008L2.64847 5.79594C2.88499 5.2273 3.21111 4.70016 3.61443 4.23462L4.77175 4.52262C4.92317 4.5603 5.08351 4.52513 5.20526 4.42751C5.56481 4.13923 5.96536 3.9062 6.39368 3.73612C6.54021 3.67794 6.65071 3.55406 6.69184 3.40186L6.99641 2.27485ZM8.08447 5.28192C7.35707 5.28192 6.65946 5.57088 6.14511 6.08523C5.63076 6.59958 5.34181 7.29719 5.34181 8.02459C5.34181 8.75199 5.63076 9.4496 6.14511 9.96395C6.65946 10.4783 7.35707 10.7673 8.08447 10.7673C8.44464 10.7673 8.80129 10.6963 9.13405 10.5585C9.4668 10.4207 9.76915 10.2186 10.0238 9.96395C10.2785 9.70927 10.4805 9.40692 10.6184 9.07416C10.7562 8.74141 10.8271 8.38476 10.8271 8.02459C10.8271 7.66442 10.7562 7.30777 10.6184 6.97502C10.4805 6.64226 10.2785 6.33991 10.0238 6.08523C9.76915 5.83055 9.4668 5.62853 9.13405 5.4907C8.80129 5.35286 8.44464 5.28192 8.08447 5.28192ZM6.85222 6.79234C7.17903 6.46553 7.62229 6.28192 8.08447 6.28192C8.31332 6.28192 8.53993 6.327 8.75136 6.41458C8.96279 6.50215 9.1549 6.63052 9.31672 6.79234C9.47855 6.95416 9.60691 7.14627 9.69449 7.3577C9.78206 7.56913 9.82714 7.79574 9.82714 8.02459C9.82714 8.25344 9.78206 8.48005 9.69449 8.69148C9.60691 8.90291 9.47855 9.09502 9.31672 9.25684C9.1549 9.41866 8.96279 9.54703 8.75136 9.6346C8.53993 9.72218 8.31332 9.76726 8.08447 9.76726C7.62229 9.76726 7.17903 9.58366 6.85222 9.25684C6.52541 8.93003 6.34181 8.48677 6.34181 8.02459C6.34181 7.56241 6.52541 7.11915 6.85222 6.79234Z" fill="#ABB4BD"/>
</svg>
