<svg width="16" height="16" viewBox="0 0 16 16" fill="none" xmlns="http://www.w3.org/2000/svg">
<path fill-rule="evenodd" clip-rule="evenodd" d="M6.11699 2.77844C6.61708 2.27835 7.29536 1.9974 8.0026 1.9974C8.70985 1.9974 9.38812 2.27835 9.88822 2.77844C10.3883 3.27854 10.6693 3.95682 10.6693 4.66406V6.66406H5.33594V4.66406C5.33594 3.95682 5.61689 3.27854 6.11699 2.77844ZM4.0026 6.66406V4.66406C4.0026 3.6032 4.42403 2.58578 5.17418 1.83564C5.92432 1.08549 6.94174 0.664062 8.0026 0.664062C9.06347 0.664062 10.0809 1.08549 10.831 1.83564C11.5812 2.58578 12.0026 3.6032 12.0026 4.66406V6.66406H12.6693C13.7738 6.66406 14.6693 7.55949 14.6693 8.66406V13.3307C14.6693 14.4353 13.7738 15.3307 12.6693 15.3307H3.33594C2.23137 15.3307 1.33594 14.4353 1.33594 13.3307V8.66406C1.33594 7.55949 2.23137 6.66406 3.33594 6.66406H4.0026ZM11.3359 7.9974H4.66927H3.33594C2.96775 7.9974 2.66927 8.29587 2.66927 8.66406V13.3307C2.66927 13.6989 2.96775 13.9974 3.33594 13.9974H12.6693C13.0375 13.9974 13.3359 13.6989 13.3359 13.3307V8.66406C13.3359 8.29587 13.0375 7.9974 12.6693 7.9974H11.3359Z" fill="#ABB4BD"/>
</svg>
