<svg width="16" height="16" viewBox="0 0 16 16" fill="none" xmlns="http://www.w3.org/2000/svg">
<g clip-path="url(#clip0_476_22659)">
<path fill-rule="evenodd" clip-rule="evenodd" d="M7.9974 1.9974C4.68369 1.9974 1.9974 4.68369 1.9974 7.9974C1.9974 11.3111 4.68369 13.9974 7.9974 13.9974C11.3111 13.9974 13.9974 11.3111 13.9974 7.9974C13.9974 4.68369 11.3111 1.9974 7.9974 1.9974ZM0.664062 7.9974C0.664062 3.94731 3.94731 0.664062 7.9974 0.664062C12.0475 0.664062 15.3307 3.94731 15.3307 7.9974C15.3307 12.0475 12.0475 15.3307 7.9974 15.3307C3.94731 15.3307 0.664062 12.0475 0.664062 7.9974ZM8.16953 5.347C7.85919 5.29376 7.54001 5.35208 7.26855 5.51163C6.99708 5.67117 6.79084 5.92164 6.68634 6.21868C6.56416 6.56601 6.18355 6.74852 5.83623 6.62634C5.4889 6.50416 5.30638 6.12355 5.42856 5.77622C5.63755 5.18215 6.05003 4.6812 6.59297 4.36212C7.1359 4.04303 7.77425 3.92639 8.39494 4.03285C9.01564 4.13932 9.57862 4.46202 9.98419 4.9438C10.3897 5.42548 10.6116 6.0351 10.6108 6.66472C10.6105 7.68496 9.85408 8.35871 9.31392 8.71882C9.0235 8.91243 8.73782 9.05479 8.52738 9.14832C8.42121 9.19551 8.33181 9.23132 8.26739 9.25586C8.23512 9.26815 8.20896 9.27768 8.18992 9.28445L8.16677 9.29256L8.15939 9.29507L8.1568 9.29595L8.15577 9.29629C8.15557 9.29636 8.15494 9.29657 7.94412 8.66412L8.15494 9.29657C7.80564 9.413 7.4281 9.22423 7.31167 8.87494C7.19527 8.52576 7.38388 8.14834 7.73295 8.03178L7.74324 8.02816C7.7535 8.02451 7.77031 8.01842 7.79273 8.00988C7.83768 7.99275 7.90453 7.96606 7.98586 7.92991C8.15042 7.85677 8.36474 7.74914 8.57432 7.60942C9.03405 7.30293 9.27745 6.97687 9.27745 6.66412L9.27746 6.66312C9.27792 6.34824 9.16694 6.04336 8.96416 5.80247C8.76137 5.56158 8.47988 5.40023 8.16953 5.347ZM7.33079 11.3308C7.33079 10.9626 7.62926 10.6641 7.99745 10.6641H8.00412C8.37231 10.6641 8.67079 10.9626 8.67079 11.3308C8.67079 11.699 8.37231 11.9974 8.00412 11.9974H7.99745C7.62926 11.9974 7.33079 11.699 7.33079 11.3308Z" fill="#ABB4BD"/>
</g>
<defs>
<clipPath id="clip0_476_22659">
<rect width="16" height="16" fill="white"/>
</clipPath>
</defs>
</svg>
